<?xml version="1.0" encoding="UTF-8"?>
<svg version="1.1" xmlns="http://www.w3.org/2000/svg" width="512" height="512">
<path d="M0 0 C1.25296875 0.96486328 1.25296875 0.96486328 2.53125 1.94921875 C18.09315593 14.08849031 33.01900399 28.29489332 45 44 C45.62720947 44.81259277 45.62720947 44.81259277 46.26708984 45.64160156 C53.94828226 55.63471801 60.69229412 66.09292525 67 77 C67.59941406 78.03181396 67.59941406 78.03181396 68.2109375 79.08447266 C80.66151732 100.78420385 88.5428523 124.80172322 93.75 149.1875 C94.04825684 150.57473267 94.04825684 150.57473267 94.35253906 151.98999023 C97.54132556 167.68915736 98.37809587 183.14644315 98.3125 199.125 C98.31034485 200.07220917 98.3081897 201.01941833 98.30596924 201.99533081 C98.25419035 216.19187392 97.8146013 230.04332023 95 244 C94.70198486 245.52536377 94.70198486 245.52536377 94.39794922 247.08154297 C84.86090325 294.7524851 62.7582617 337.97738393 29 373 C28.41669922 373.60521484 27.83339844 374.21042969 27.23242188 374.83398438 C19.55741965 382.74908052 11.81621172 390.34540117 3 397 C2.36787598 397.48146484 1.73575195 397.96292969 1.08447266 398.45898438 C-22.48142437 416.31043956 -48.69993269 430.29649767 -77 439 C-77.85883789 439.26651367 -78.71767578 439.53302734 -79.60253906 439.80761719 C-102.92201194 446.91752635 -126.76813922 450.22840412 -151.125 450.25 C-151.81842499 450.25067474 -152.51184998 450.25134949 -153.22628784 450.25204468 C-174.92066467 450.21889132 -195.97385881 447.33820327 -217 442 C-217.83128418 441.79036621 -218.66256836 441.58073242 -219.51904297 441.36474609 C-257.30201106 431.56636806 -291.85197152 411.45100017 -320.5546875 385.22265625 C-322.90151662 383.08951605 -325.29034586 381.01367927 -327.6875 378.9375 C-331.06285057 375.93261474 -334.09712332 372.81720965 -337.0078125 369.36328125 C-338.5419478 367.54337564 -340.09708884 365.75745061 -341.6796875 363.98046875 C-379.66599396 321.04079319 -401.53458988 264.27842156 -403 207 C-403.03996094 205.87207031 -403.07992188 204.74414062 -403.12109375 203.58203125 C-404.10170277 151.60975323 -388.53023041 98.22837146 -358 56 C-357.26265625 54.97003906 -356.5253125 53.94007812 -355.765625 52.87890625 C-350.19561825 45.28434031 -344.17413818 38.10423855 -338 31 C-337.20207031 30.07703125 -336.40414062 29.1540625 -335.58203125 28.203125 C-331.64421443 23.72987353 -327.62667986 19.59522474 -323.06640625 15.7578125 C-320.81253016 13.8405266 -318.66507153 11.82937799 -316.5 9.8125 C-305.59008322 0.00358399 -293.55445754 -8.33533388 -280.96484375 -15.82958984 C-279.68200177 -16.59374795 -278.40313458 -17.36462995 -277.12890625 -18.14306641 C-193.25489176 -69.2787301 -76.5230608 -60.65577908 0 0 Z " fill="#93CE97" transform="translate(408,56)"/>
<path d="M0 0 C59.73 0 119.46 0 181 0 C168.80816958 25.73830866 156.42560753 51.37218447 144 77 C108.69 77 73.38 77 37 77 C34.36 71.72 31.72 66.44 29 61 C28.07574219 59.16308594 27.15148437 57.32617188 26.19921875 55.43359375 C20.97031144 45.04088615 15.85882777 34.60035201 10.86865234 24.09082031 C7.72985163 17.48871236 4.49186689 10.94791018 1.14453125 4.44921875 C0 2 0 2 0 0 Z " fill="#CACBCA" transform="translate(186,349)"/>
<path d="M0 0 C0.8971875 0.49628906 1.794375 0.99257812 2.71875 1.50390625 C24.7653579 13.56900584 47.41140944 24.01413142 73 17 C74.07121094 16.65195313 75.14242187 16.30390625 76.24609375 15.9453125 C80.46080648 14.88395924 84.18006435 14.69507363 88.5 14.75 C89.6758667 14.76123901 89.6758667 14.76123901 90.87548828 14.77270508 C108.9351141 15.09970012 124.05575211 18.67989459 137 31.875 C151.40519707 48.69526956 154.31856074 70.63036285 153 92 C152.40797663 96.43727323 151.33164158 100.72764994 150 105 C139.60532622 104.60020485 130.58347471 99.40621197 123.11328125 92.359375 C113 81.06839187 113 81.06839187 113 76 C108.43154317 76.36094252 103.86426413 76.73389669 99.29760742 77.11694336 C97.75131367 77.24506804 96.20476666 77.37018009 94.65795898 77.49194336 C81.19266305 78.55533852 67.96553341 80.26288949 55.125 84.6875 C54.38668945 84.93443604 53.64837891 85.18137207 52.88769531 85.43579102 C46.56455402 87.62957497 40.56748345 90.41299601 34.65673828 93.54760742 C30.30879932 95.76222184 27.68800782 96.48346549 23 95 C10.94529517 89.47637444 4.5903827 79.77394957 -0.0390625 67.71875 C-7.23389816 47.3626296 -5.18100691 22.87353921 -1 2 C-0.67 1.34 -0.34 0.68 0 0 Z " fill="#F5851F" transform="translate(166,139)"/>
<path d="M0 0 C3.100293 -0.30887103 5.2420366 -0.48079875 8.19921875 0.5 C11.27717186 3.80190865 13.16950529 7.49602973 15.19921875 11.5 C22.11494843 21.21940387 32.74821975 26.833329 44.19921875 29.5 C42.780748 36.63288149 40.67377282 43.35951658 37.88671875 50.0625 C37.47957642 51.09793945 37.47957642 51.09793945 37.06420898 52.15429688 C34.94693435 57.05401569 32.89563819 58.29911714 28.19921875 60.5 C26.51686958 62.60013255 25.10307338 64.54730598 23.69921875 66.8125 C21.30743249 70.54316661 19.28877779 73.4953381 15.95703125 76.40234375 C13.57581734 78.69560223 12.78845614 80.14803345 12.53515625 83.453125 C12.52555115 84.88544365 12.53934444 86.31807376 12.57421875 87.75 C12.37952556 97.72749092 10.34076587 105.36929721 3.2109375 112.73828125 C-3.33692033 118.47242471 -9.39365917 119.94396199 -17.92578125 120.0625 C-18.67770752 120.07732422 -19.42963379 120.09214844 -20.2043457 120.10742188 C-28.07551711 119.96260129 -34.40335411 116.54863013 -40.1953125 111.33984375 C-46.41510801 104.21204889 -47.80078125 96.44716391 -47.80078125 87.3125 C-48.05383099 80.20810694 -50.3498062 76.64546019 -55.43359375 71.7890625 C-58.85462123 68.48094021 -61.5103499 64.66768685 -63.80078125 60.5 C-63.80078125 59.84 -63.80078125 59.18 -63.80078125 58.5 C-64.64640625 58.55800781 -65.49203125 58.61601562 -66.36328125 58.67578125 C-78.11256655 59.14308237 -78.11256655 59.14308237 -83.01171875 55.515625 C-87.81010942 50.10957787 -91.45876928 42.92724499 -92.17578125 35.7421875 C-91.80078125 32.5 -91.80078125 32.5 -90.71875 30.57421875 C-87.83375812 28.95838827 -85.38589115 29.21529377 -82.11328125 29.3125 C-80.93378906 29.33957031 -79.75429687 29.36664063 -78.5390625 29.39453125 C-77.63542969 29.42933594 -76.73179687 29.46414062 -75.80078125 29.5 C-76.13078125 26.53 -76.46078125 23.56 -76.80078125 20.5 C-54.00391173 8.70649754 -31.85729296 2.1595905 -6.14306641 0.6640625 C-4.08848208 0.52015165 -2.04202445 0.2686322 0 0 Z " fill="#F8B4B1" transform="translate(270.80078125,214.5)"/>
<path d="M0 0 C8.47470778 6.83400435 15.30137637 16.35683018 18 27 C19.47373712 41.66807321 18.60148309 54.597866 9.75 66.8125 C1.39960794 76.62061137 -8.82354894 84.39686512 -22 86 C-36.64309914 87.09151542 -48.36300826 84.10721093 -60 75 C-69.2991775 66.52516638 -75.6216169 55.33957956 -76.37109375 42.58203125 C-76.62417253 32.70372877 -76.03741218 24.76882861 -71 16 C-70.33097656 14.78957031 -70.33097656 14.78957031 -69.6484375 13.5546875 C-62.95207831 2.51878828 -52.33456437 -4.64677791 -40.0625 -8.375 C-25.98480668 -11.20219721 -11.76055848 -8.06438296 0 0 Z " fill="#FDC50C" transform="translate(149,250)"/>
<path d="M0 0 C9.23731762 -0.39663059 17.62276451 0.98715881 25.89453125 5.2265625 C29.14929113 8.24240106 31.4406127 11.76504597 33.14453125 15.8515625 C33.61632812 16.95371094 33.61632812 16.95371094 34.09765625 18.078125 C35.48666391 21.82299859 36.0158585 24.9763092 35.95703125 28.9765625 C35.94800781 29.77578125 35.93898438 30.575 35.9296875 31.3984375 C35.91808594 32.00171875 35.90648437 32.605 35.89453125 33.2265625 C35.23453125 32.8965625 34.57453125 32.5665625 33.89453125 32.2265625 C32.53121109 32.13189989 31.16347608 32.09584075 29.796875 32.09375 C28.99572266 32.09246094 28.19457031 32.09117188 27.36914062 32.08984375 C26.11327148 32.09564453 26.11327148 32.09564453 24.83203125 32.1015625 C23.57036133 32.09576172 23.57036133 32.09576172 22.28320312 32.08984375 C18.27032255 31.69052366 18.27032255 31.69052366 14.89453125 33.2265625 C14.72786458 36.2265625 14.72786458 36.2265625 14.89453125 39.2265625 C15.88936327 40.44299542 15.88936327 40.44299542 17.84399414 40.34008789 C19.09297485 40.33223267 19.09297485 40.33223267 20.3671875 40.32421875 C21.71586914 40.31938477 21.71586914 40.31938477 23.09179688 40.31445312 C24.03732422 40.30607422 24.98285156 40.29769531 25.95703125 40.2890625 C26.90642578 40.28455078 27.85582031 40.28003906 28.83398438 40.27539062 C31.1875619 40.2635636 33.54101602 40.24708275 35.89453125 40.2265625 C36.31695262 51.66921193 31.77722887 61.2139252 24.89453125 70.2265625 C24.27707031 71.0515625 23.65960938 71.8765625 23.0234375 72.7265625 C14.98923601 82.16122112 1.32266727 89.17418001 -11.10546875 90.2265625 C-13.35546875 89.765625 -13.35546875 89.765625 -15.10546875 89.2265625 C-14.44546875 88.5665625 -13.78546875 87.9065625 -13.10546875 87.2265625 C-12.81267135 85.30701049 -12.81267135 85.30701049 -12.875 83.12890625 C-12.87693359 82.32775391 -12.87886719 81.52660156 -12.88085938 80.70117188 C-12.89310547 79.86392578 -12.90535156 79.02667969 -12.91796875 78.1640625 C-12.91861328 77.32294922 -12.91925781 76.48183594 -12.91992188 75.61523438 C-12.55239717 71.60140382 -12.55239717 71.60140382 -14.10546875 68.2265625 C-17.10546875 68.05989583 -17.10546875 68.05989583 -20.10546875 68.2265625 C-22.25558828 70.37668203 -21.2906752 75.12454048 -21.29296875 78.1015625 C-21.30521484 78.93042969 -21.31746094 79.75929688 -21.33007812 80.61328125 C-21.33201172 81.41121094 -21.33394531 82.20914063 -21.3359375 83.03125 C-21.34210083 84.12928955 -21.34210083 84.12928955 -21.34838867 85.24951172 C-21.21633722 87.54677294 -21.21633722 87.54677294 -19.10546875 90.2265625 C-26.70126582 89.89702684 -33.14266483 88.26563387 -40.10546875 85.2265625 C-41.25982422 84.75476563 -41.25982422 84.75476563 -42.4375 84.2734375 C-47.27031654 81.87047863 -48.79441791 79.32233924 -50.54296875 74.2265625 C-51.10839157 72.23870828 -51.63196303 70.23829302 -52.10546875 68.2265625 C-52.29882812 67.41832031 -52.4921875 66.61007813 -52.69140625 65.77734375 C-54.00111556 57.70904018 -53.87407653 48.94952105 -51.10546875 41.2265625 C-50.56921875 40.7109375 -50.03296875 40.1953125 -49.48046875 39.6640625 C-49.02671875 39.1896875 -48.57296875 38.7153125 -48.10546875 38.2265625 C-48.18796875 37.2365625 -48.27046875 36.2465625 -48.35546875 35.2265625 C-48.62831405 28.41979036 -43.14890045 22.63570061 -38.98828125 17.73046875 C-33.37060956 11.80292549 -26.73309312 5.37584071 -18.23046875 5.1015625 C-17.19921875 5.1428125 -16.16796875 5.1840625 -15.10546875 5.2265625 C-14.14640625 4.2675 -14.14640625 4.2675 -13.16796875 3.2890625 C-9.54679285 -0.3321134 -4.84046703 0.35314099 0 0 Z " fill="#C2D2A1" transform="translate(386.10546875,94.7734375)"/>
<path d="M0 0 C0.84626953 -0.00322266 1.69253906 -0.00644531 2.56445312 -0.00976562 C17.13494116 0.11380829 29.53487826 6.4007847 40.046875 16.19921875 C41.81573761 18.17639782 42.90690588 19.88402555 43.9375 22.3125 C41.99963915 21.83479477 40.06222326 21.35528429 38.125 20.875 C37.04605469 20.60816406 35.96710938 20.34132813 34.85546875 20.06640625 C32.8634157 19.55172588 30.88938476 18.96312825 28.9375 18.3125 C21.66529272 17.99832586 14.07016431 17.72746349 6.9375 19.3125 C6.256875 19.993125 5.57625 20.67375 4.875 21.375 C4.235625 22.014375 3.59625 22.65375 2.9375 23.3125 C1.4215625 23.2196875 1.4215625 23.2196875 -0.125 23.125 C-8.50039815 23.52382848 -15.70441401 30.21979923 -21.26953125 36.140625 C-26.42334806 42.38359264 -29.38514147 47.08514253 -29.0625 55.3125 C-30.34975907 57.01500393 -31.68381719 58.68314759 -33.0625 60.3125 C-35.47032154 71.06334651 -34.44003701 81.91650306 -31.0625 92.3125 C-30.71251953 93.60414063 -30.71251953 93.60414063 -30.35546875 94.921875 C-27.56049528 100.08962051 -20.45175624 102.38210041 -15.0625 104.3125 C-10.74040022 105.32113741 -6.48386811 105.9526212 -2.0625 106.3125 C-3.0525 105.3225 -3.0525 105.3225 -4.0625 104.3125 C-4.32128906 102.46484375 -4.32128906 102.46484375 -4.328125 100.25 C-4.33070313 99.45335937 -4.33328125 98.65671875 -4.3359375 97.8359375 C-4.32820313 97.00320312 -4.32046875 96.17046875 -4.3125 95.3125 C-4.32410156 94.06339844 -4.32410156 94.06339844 -4.3359375 92.7890625 C-4.33335937 91.99242187 -4.33078125 91.19578125 -4.328125 90.375 C-4.32586914 89.64410156 -4.32361328 88.91320312 -4.32128906 88.16015625 C-4.0625 86.3125 -4.0625 86.3125 -2.0625 84.3125 C0.9375 84.0625 0.9375 84.0625 3.9375 84.3125 C6.30318222 86.67818222 6.19321704 87.16482226 6.203125 90.375 C6.20699219 91.56996094 6.20699219 91.56996094 6.2109375 92.7890625 C6.20320313 93.62179688 6.19546875 94.45453125 6.1875 95.3125 C6.19910156 96.56160156 6.19910156 96.56160156 6.2109375 97.8359375 C6.20835937 98.63257813 6.20578125 99.42921875 6.203125 100.25 C6.20086914 100.98089844 6.19861328 101.71179688 6.19628906 102.46484375 C5.9375 104.3125 5.9375 104.3125 3.9375 106.3125 C20.68852509 104.32257326 33.28513307 97.86268519 43.9375 84.75 C49.91010179 76.56076249 52.62630236 67.25411791 53.9375 57.3125 C52.9475 57.8075 52.9475 57.8075 51.9375 58.3125 C48.94305594 58.54792471 45.94020151 58.49767593 42.9375 58.5 C42.10476563 58.51224609 41.27203125 58.52449219 40.4140625 58.53710938 C39.21910156 58.54000977 39.21910156 58.54000977 38 58.54296875 C37.26910156 58.54707764 36.53820312 58.55118652 35.78515625 58.55541992 C33.9375 58.3125 33.9375 58.3125 31.9375 56.3125 C31.6875 53.3125 31.6875 53.3125 31.9375 50.3125 C33.9375 48.3125 33.9375 48.3125 35.80102539 48.06958008 C36.90692017 48.07574341 36.90692017 48.07574341 38.03515625 48.08203125 C38.83630859 48.08396484 39.63746094 48.08589844 40.46289062 48.08789062 C41.71875977 48.10625977 41.71875977 48.10625977 43 48.125 C44.26166992 48.1259668 44.26166992 48.1259668 45.54882812 48.12695312 C51.79726816 48.17226816 51.79726816 48.17226816 52.9375 49.3125 C53.47596471 42.17784257 51.62493841 36.87416532 48.9375 30.3125 C48.27083333 28.64583333 47.60416667 26.97916667 46.9375 25.3125 C47.5975 25.3125 48.2575 25.3125 48.9375 25.3125 C60.15896545 37.94491592 65.7440725 51.92219306 65.31640625 68.8515625 C64.66641648 79.61017445 60.06713371 89.57240233 53.9375 98.3125 C53.215625 99.34375 52.49375 100.375 51.75 101.4375 C43.12633015 111.09819344 29.78189359 118.03087739 16.9375 119.3125 C0.17709885 120.20914698 -13.23480971 117.26064327 -26.3125 106.0625 C-31.03491468 101.60865867 -34.53495503 96.72861267 -38.0625 91.3125 C-39.28797117 89.60151377 -40.51712129 87.89315635 -41.75 86.1875 C-48.92371728 75.88430874 -52.64787177 65.51396081 -52.5 52.875 C-52.49170166 51.95340088 -52.48340332 51.03180176 -52.47485352 50.08227539 C-52.30277456 43.15441356 -51.36177601 37.48282741 -48.0625 31.3125 C-47.55332031 30.30960938 -47.04414063 29.30671875 -46.51953125 28.2734375 C-38.9961143 14.39729548 -27.47190859 5.62816595 -12.44750977 0.87280273 C-8.29943537 -0.10169115 -4.24102443 -0.08112135 0 0 Z " fill="#9BB561" transform="translate(368.0625,77.6875)"/>
<path d="M0 0 C0.8971875 0.49628906 1.794375 0.99257812 2.71875 1.50390625 C24.7653579 13.56900584 47.41140944 24.01413142 73 17 C74.07121094 16.65195313 75.14242187 16.30390625 76.24609375 15.9453125 C80.46080648 14.88395924 84.18006435 14.69507363 88.5 14.75 C89.6758667 14.76123901 89.6758667 14.76123901 90.87548828 14.77270508 C108.9351141 15.09970012 124.05575211 18.67989459 137 31.875 C148.89965329 45.76966419 153.17478169 63.54283894 153.1875 81.4375 C153.19974609 82.34048828 153.21199219 83.24347656 153.22460938 84.17382812 C153.23683262 89.80059377 152.597483 94.60139143 151 100 C150.34 100 149.68 100 149 100 C148.72027344 99.26136719 148.44054687 98.52273437 148.15234375 97.76171875 C142.96297205 84.62977172 136.74612812 73.40657151 123.9375 66.8125 C117.90013917 63.49345338 116.00538766 60.02027816 113.3515625 53.8125 C110.18638299 47.22599928 104.66092984 44.44999718 98 42 C89.58320832 40.98228336 81.81597131 41.81770695 73.6875 44 C48.22493297 50.67601803 23.91517379 41.76418037 1.875 29 C0.24395933 28.00988317 -1.38376635 27.01410739 -3 26 C-2.88529624 22.97846145 -2.7585615 19.95821599 -2.625 16.9375 C-2.5940625 16.08994141 -2.563125 15.24238281 -2.53125 14.36914062 C-2.29468217 9.26321829 -1.61955494 4.85208127 0 0 Z " fill="#FDC50B" transform="translate(166,139)"/>
<path d="M0 0 C3.100293 -0.30887103 5.2420366 -0.48079875 8.19921875 0.5 C11.27717186 3.80190865 13.16950529 7.49602973 15.19921875 11.5 C22.11494843 21.21940387 32.74821975 26.833329 44.19921875 29.5 C42.77087973 36.68250481 40.63652679 43.44099693 37.82421875 50.1875 C37.54441162 50.89455078 37.26460449 51.60160156 36.97631836 52.33007812 C36.11328125 54.32421875 36.11328125 54.32421875 34.19921875 57.5 C31.47265625 58.45703125 31.47265625 58.45703125 29.19921875 58.5 C29.68132812 57.4378125 30.1634375 56.375625 30.66015625 55.28125 C31.29851972 53.8543199 31.93652121 52.42722783 32.57421875 51 C32.89132812 50.30390625 33.2084375 49.6078125 33.53515625 48.890625 C35.64131249 44.15177346 37.07028446 39.56309922 38.19921875 34.5 C37.48507812 34.39945313 36.7709375 34.29890625 36.03515625 34.1953125 C28.13921814 32.25939379 20.10812151 25.93447655 15.19921875 19.5 C14.77769531 18.54738281 14.35617187 17.59476563 13.921875 16.61328125 C12.32050117 13.14881321 11.1095859 10.99964766 8.19921875 8.5 C1.73323187 6.80218259 -5.24068561 7.86120788 -11.80078125 8.5 C-13.26159269 8.60591986 -14.72252401 8.71020493 -16.18359375 8.8125 C-26.6524288 9.68674993 -36.66371403 12.27450723 -46.78710938 14.98095703 C-49.10940993 15.57955196 -51.44100091 16.07312917 -53.80078125 16.5 C-49.41534343 40.03427503 -39.85254401 63.5253651 -19.98828125 78.3125 C-13.14684175 82.81653661 -5.21191932 87.4035838 3.19921875 86.5 C5.79210216 85.25053333 5.79210216 85.25053333 8.07421875 83.5 C8.85539062 82.943125 9.6365625 82.38625 10.44140625 81.8125 C11.02148438 81.379375 11.6015625 80.94625 12.19921875 80.5 C12.71868391 92.13024764 12.57217527 101.25836628 5.07421875 110.8125 C-0.97022718 117.05969464 -6.88009156 119.7085468 -15.53588867 120.02929688 C-16.32455322 120.04025391 -17.11321777 120.05121094 -17.92578125 120.0625 C-18.67770752 120.07732422 -19.42963379 120.09214844 -20.2043457 120.10742188 C-28.07551711 119.96260129 -34.40335411 116.54863013 -40.1953125 111.33984375 C-46.41510801 104.21204889 -47.80078125 96.44716391 -47.80078125 87.3125 C-48.05383099 80.20810694 -50.3498062 76.64546019 -55.43359375 71.7890625 C-58.85462123 68.48094021 -61.5103499 64.66768685 -63.80078125 60.5 C-63.80078125 59.84 -63.80078125 59.18 -63.80078125 58.5 C-64.64640625 58.55800781 -65.49203125 58.61601562 -66.36328125 58.67578125 C-78.11256655 59.14308237 -78.11256655 59.14308237 -83.01171875 55.515625 C-87.81010942 50.10957787 -91.45876928 42.92724499 -92.17578125 35.7421875 C-91.80078125 32.5 -91.80078125 32.5 -90.71875 30.57421875 C-87.83375812 28.95838827 -85.38589115 29.21529377 -82.11328125 29.3125 C-80.93378906 29.33957031 -79.75429687 29.36664063 -78.5390625 29.39453125 C-77.63542969 29.42933594 -76.73179687 29.46414062 -75.80078125 29.5 C-76.13078125 26.53 -76.46078125 23.56 -76.80078125 20.5 C-54.00391173 8.70649754 -31.85729296 2.1595905 -6.14306641 0.6640625 C-4.08848208 0.52015165 -2.04202445 0.2686322 0 0 Z " fill="#F497A1" transform="translate(270.80078125,214.5)"/>
<path d="M0 0 C5.28 0 10.56 0 16 0 C14.70882509 3.87352472 13.70553568 6.81879257 11.8359375 10.27734375 C11.43632812 11.03853516 11.03671875 11.79972656 10.625 12.58398438 C9.79155588 14.15320338 8.95038751 15.71834413 8.1015625 17.27929688 C4.35952424 24.46571126 4.7088932 29.82403881 6 37.75 C6.84869308 43.8740227 7.25022478 49.88048714 7.3125 56.0625 C7.32990234 56.85946289 7.34730469 57.65642578 7.36523438 58.47753906 C7.36107136 63.39614292 6.70730074 66.73839013 4 71 C-1.89195531 76.63578334 -6.23373896 78.24658155 -14.31173706 78.26742554 C-15.03794254 78.27195665 -15.76414803 78.27648776 -16.51235974 78.28115618 C-18.94043382 78.29379432 -21.36828343 78.29218021 -23.79638672 78.29052734 C-25.53944181 78.29651294 -27.28249425 78.30331856 -29.02554321 78.31088257 C-33.75698539 78.32854598 -38.48835522 78.33323808 -43.21982718 78.33451414 C-46.17663036 78.33593603 -49.13341516 78.34020633 -52.09021378 78.34550858 C-62.40764788 78.36400952 -72.72503032 78.37217905 -83.04248047 78.37060547 C-92.6565694 78.36940384 -102.27043391 78.39051026 -111.88446605 78.4220928 C-120.1419435 78.44825138 -128.39934763 78.45897295 -136.65686619 78.45769465 C-141.58727161 78.45718492 -146.51747754 78.46287421 -151.44784164 78.48405075 C-156.08543853 78.50342624 -160.72264549 78.50356234 -165.3602562 78.48901749 C-167.06018646 78.48692748 -168.76014109 78.49164175 -170.4600296 78.5037384 C-172.78524146 78.51921045 -175.10911201 78.50987125 -177.43429565 78.49447632 C-178.73398222 78.49556585 -180.03366879 78.49665539 -181.37273979 78.49777794 C-187.10823655 77.71068146 -190.71954846 75.33865388 -194.75 71.125 C-197 68 -197 68 -198.5 64.9375 C-199.87787094 61.85248783 -199.87787094 61.85248783 -202.5625 59.5 C-205.78988121 56.18986542 -206.9052904 53.33994205 -207.09399414 48.67773438 C-207.04416177 45.9449582 -206.9138472 43.22830066 -206.75 40.5 C-206.6991626 39.52981934 -206.6483252 38.55963867 -206.59594727 37.56005859 C-206.15657729 29.96154262 -205.31830565 22.50026323 -204 15 C-203.34 15 -202.68 15 -202 15 C-201.63748138 15.74382935 -201.63748138 15.74382935 -201.26763916 16.50268555 C-198.73718054 21.69457306 -196.206153 26.88618293 -193.67480469 32.07763672 C-192.7319523 34.01148576 -191.78924181 35.94540399 -190.84667969 37.87939453 C-189.48670748 40.66978148 -188.1262141 43.45991381 -186.765625 46.25 C-186.14037933 47.533302 -186.14037933 47.533302 -185.50250244 48.8425293 C-183.03066583 53.90988768 -180.52956011 58.96119753 -178 64 C-147.22013976 64.91647709 -116.44394998 65.28059014 -85.65228271 65.53222656 C-79.46217787 65.58353578 -73.27210668 65.63863533 -67.08203125 65.69335938 C-55.0547166 65.79915787 -43.02737204 65.90095572 -31 66 C-30.71626526 65.10877945 -30.43253052 64.2175589 -30.14019775 63.29933167 C-29.16225264 60.46950213 -28.0788157 57.88994912 -26.75683594 55.21069336 C-26.31587585 54.3121312 -25.87491577 53.41356903 -25.42059326 52.48777771 C-24.94664124 51.5314595 -24.47268921 50.5751413 -23.984375 49.58984375 C-23.24420135 48.08400475 -23.24420135 48.08400475 -22.48907471 46.54774475 C-20.9129648 43.34255182 -19.33179139 40.13989236 -17.75 36.9375 C-15.68016651 32.73932522 -13.61259939 28.54004188 -11.546875 24.33984375 C-11.05473511 23.33964203 -10.56259521 22.33944031 -10.05554199 21.30892944 C-6.59247064 14.2530724 -3.2421333 7.16064268 0 0 Z " fill="#4AA770" transform="translate(361,360)"/>
<path d="M0 0 C15.66548439 -1.42004965 15.66548439 -1.42004965 20.26025391 2.25292969 C21.91650391 4.85449219 21.91650391 4.85449219 23.28759766 7.60839844 C26.06412491 12.65731386 31.38209191 15.44718819 36.72900391 17.22949219 C51.57945033 18.33395754 51.57945033 18.33395754 64.72900391 12.22949219 C67.80165693 9.34106675 70.13599448 6.45353041 71.97802734 2.65136719 C73.72900391 0.22949219 73.72900391 0.22949219 76.14233398 -0.38574219 C77.55615356 -0.37510742 77.55615356 -0.37510742 78.99853516 -0.36425781 C80.04581787 -0.36401611 81.09310059 -0.36377441 82.17211914 -0.36352539 C83.28401611 -0.33282959 84.39591309 -0.30213379 85.54150391 -0.27050781 C87.23932007 -0.24283325 87.23932007 -0.24283325 88.97143555 -0.21459961 C105.97141274 0.22773368 118.52133526 3.69225559 130.99072266 15.63183594 C135.05111397 20.96652981 137.73081324 27.23311086 140.72900391 33.22949219 C80.33900391 33.22949219 19.94900391 33.22949219 -42.27099609 33.22949219 C-37.96497111 20.31141722 -30.34302691 11.24417845 -18.33349609 4.85449219 C-12.09351143 1.98050676 -6.79492006 0.6866507 0 0 Z " fill="#06B2E0" transform="translate(207.27099609375,315.7705078125)"/>
<path d="M0 0 C13.2 0 26.4 0 40 0 C59.75692315 39.36529801 59.75692315 39.36529801 67.87890625 56.62109375 C68.98555747 58.96935365 70.10126245 61.31313095 71.21875 63.65625 C71.87540583 65.04147436 72.53168475 66.42687748 73.1875 67.8125 C73.73792969 68.97394531 74.28835937 70.13539063 74.85546875 71.33203125 C76 74 76 74 76 76 C63.13 76 50.26 76 37 76 C29.40163004 61.74434259 22.1884892 47.33936304 15.125 32.8125 C13.59337886 29.66967727 12.06093128 26.52725872 10.52828979 23.38493347 C9.58587279 21.45197752 8.6441916 19.51866257 7.70339966 17.58491516 C7.2755014 16.70587021 6.84760315 15.82682526 6.40673828 14.92114258 C5.80034515 13.67380844 5.80034515 13.67380844 5.18170166 12.40127563 C4.03927253 10.07980371 2.86321762 7.77781896 1.68310547 5.4753418 C0 2 0 2 0 0 Z " fill="#989999" transform="translate(146,349)"/>
<path d="M0 0 C0.66 0 1.32 0 2 0 C13.22146545 12.63241592 18.8065725 26.60969306 18.37890625 43.5390625 C17.72891648 54.29767445 13.12963371 64.25990233 7 73 C6.278125 74.03125 5.55625 75.0625 4.8125 76.125 C-3.81116985 85.78569344 -17.15560641 92.71837739 -30 94 C-46.80562381 94.89906629 -60.26872102 91.95043684 -73.3125 80.625 C-77.41588103 76.77030873 -80.86785083 72.67275913 -84 68 C-83.505 67.01 -83.505 67.01 -83 66 C-82.13375 66.845625 -81.2675 67.69125 -80.375 68.5625 C-71.16781053 76.37747332 -60.90350938 80.0311097 -49 81 C-49.99 80.01 -49.99 80.01 -51 79 C-51.25878906 77.15234375 -51.25878906 77.15234375 -51.265625 74.9375 C-51.26820313 74.14085937 -51.27078125 73.34421875 -51.2734375 72.5234375 C-51.26570313 71.69070312 -51.25796875 70.85796875 -51.25 70 C-51.26160156 68.75089844 -51.26160156 68.75089844 -51.2734375 67.4765625 C-51.27085937 66.67992187 -51.26828125 65.88328125 -51.265625 65.0625 C-51.26336914 64.33160156 -51.26111328 63.60070312 -51.25878906 62.84765625 C-51 61 -51 61 -49 59 C-46 58.75 -46 58.75 -43 59 C-40.63431778 61.36568222 -40.74428296 61.85232226 -40.734375 65.0625 C-40.73050781 66.25746094 -40.73050781 66.25746094 -40.7265625 67.4765625 C-40.73429687 68.30929688 -40.74203125 69.14203125 -40.75 70 C-40.73839844 71.24910156 -40.73839844 71.24910156 -40.7265625 72.5234375 C-40.72914063 73.32007813 -40.73171875 74.11671875 -40.734375 74.9375 C-40.73663086 75.66839844 -40.73888672 76.39929688 -40.74121094 77.15234375 C-41 79 -41 79 -43 81 C-26.24897491 79.01007326 -13.65236693 72.55018519 -3 59.4375 C2.97260179 51.24826249 5.68880236 41.94161791 7 32 C6.01 32.495 6.01 32.495 5 33 C2.00555594 33.23542471 -0.99729849 33.18517593 -4 33.1875 C-4.83273437 33.19974609 -5.66546875 33.21199219 -6.5234375 33.22460938 C-7.71839844 33.22750977 -7.71839844 33.22750977 -8.9375 33.23046875 C-9.66839844 33.23457764 -10.39929688 33.23868652 -11.15234375 33.24291992 C-13 33 -13 33 -15 31 C-15.25 28 -15.25 28 -15 25 C-13 23 -13 23 -11.13647461 22.75708008 C-10.03057983 22.76324341 -10.03057983 22.76324341 -8.90234375 22.76953125 C-8.10119141 22.77146484 -7.30003906 22.77339844 -6.47460938 22.77539062 C-5.21874023 22.79375977 -5.21874023 22.79375977 -3.9375 22.8125 C-2.67583008 22.8134668 -2.67583008 22.8134668 -1.38867188 22.81445312 C4.85976816 22.85976816 4.85976816 22.85976816 6 24 C6.53846471 16.86534257 4.68743841 11.56166532 2 5 C1.33333333 3.33333333 0.66666667 1.66666667 0 0 Z " fill="#4CA76F" transform="translate(415,103)"/>
<path d="M0 0 C6.70967814 2.65996149 10.55412795 10.04801124 13.59375 16.25390625 C18.90573178 28.83897936 19.88491097 40.89161424 15.32421875 53.93359375 C8.69608767 69.28192087 -1.81198431 77.90104257 -17 84 C-28.92083365 87.43611791 -43.271478 85.8870795 -54 80 C-61.97100595 75.25109157 -67.62139995 69.52079319 -73 62 C-72.67 61.34 -72.34 60.68 -72 60 C-71.39414063 60.45890625 -70.78828125 60.9178125 -70.1640625 61.390625 C-58.48904914 69.94032709 -47.43774554 73.3070184 -33 72 C-20.22462034 69.52140638 -8.90268662 63.38070129 -1.34375 52.6484375 C4.27751045 43.74810845 6.56677527 35.69957357 6.5 25.1875 C6.49794556 23.74262207 6.49794556 23.74262207 6.49584961 22.26855469 C6.33003383 14.55129337 4.91966888 8.73411965 1 2 C0.505 1.01 0.505 1.01 0 0 Z " fill="#4DA76E" transform="translate(160,263)"/>
<path d="M0 0 C2.9375 0.875 2.9375 0.875 4.9375 3.875 C4.9375 5.195 4.9375 6.515 4.9375 7.875 C6.29875 8.2153125 6.29875 8.2153125 7.6875 8.5625 C11.46812623 10.08929136 12.89762491 11.36641485 14.9375 14.875 C14.875 17.5625 14.875 17.5625 13.9375 19.875 C10.9375 21.875 10.9375 21.875 8.4375 21.625 C5.9375 20.875 5.9375 20.875 2.9375 18.875 C0.17729004 18.50332816 -2.25102476 18.69649364 -5.0625 18.875 C-5.7225 19.535 -6.3825 20.195 -7.0625 20.875 C-6.7439823 22.98320797 -6.7439823 22.98320797 -6.0625 24.875 C-4.52529297 25.25591797 -4.52529297 25.25591797 -2.95703125 25.64453125 C-1.59624653 25.99176597 -0.23557535 26.33944584 1.125 26.6875 C1.79853516 26.85314453 2.47207031 27.01878906 3.16601562 27.18945312 C8.23966484 28.50117707 12.30416928 29.96006053 15.75 34 C17.65412636 38.60999013 17.89298679 43.11650423 16.24609375 47.87109375 C14.01750341 52.20705403 11.16282452 54.57862798 6.9375 56.875 C6.2775 56.875 5.6175 56.875 4.9375 56.875 C4.834375 57.82375 4.73125 58.7725 4.625 59.75 C3.9375 62.875 3.9375 62.875 0.9375 64.875 C-2.25 64.5 -2.25 64.5 -5.0625 63.875 C-5.3925 61.565 -5.7225 59.255 -6.0625 56.875 C-6.805 56.7925 -7.5475 56.71 -8.3125 56.625 C-11.70480315 55.69982641 -13.04185699 54.75053044 -15.0625 51.875 C-14.75 46.5625 -14.75 46.5625 -13.0625 44.875 C-9.5625 44.75 -9.5625 44.75 -6.0625 44.875 C-5.7325 45.205 -5.4025 45.535 -5.0625 45.875 C-1.04592857 46.10418242 -1.04592857 46.10418242 2.9375 45.875 C3.5975 45.215 4.2575 44.555 4.9375 43.875 C4.6189823 41.76679203 4.6189823 41.76679203 3.9375 39.875 C2.92429687 39.64425781 1.91109375 39.41351563 0.8671875 39.17578125 C-12.49766849 35.97687051 -12.49766849 35.97687051 -17.0625 30.875 C-19.1544391 26.69112181 -18.49131535 21.43116307 -18.0625 16.875 C-15.92727127 12.3672949 -13.59346812 9.96621605 -9.0625 7.875 C-8.0725 7.875 -7.0825 7.875 -6.0625 7.875 C-6.124375 7.111875 -6.18625 6.34875 -6.25 5.5625 C-6.0625 2.875 -6.0625 2.875 -4.9375 1 C-3.0625 -0.125 -3.0625 -0.125 0 0 Z " fill="#FEFBF9" transform="translate(121.0625,256.125)"/>
<path d="M0 0 C3.90590763 -0.17754126 6.68902394 -0.20731737 10 2 C12.0510222 6.10204439 11.21431455 10.28954334 9.93359375 14.53515625 C6.96709196 21.52928449 4.51749011 26.6959971 -2 31 C-5 32 -5 32 -7.453125 31.96484375 C-10.54010048 31.93466382 -13.03102692 32.12726389 -16 33 C-18.26148513 35.23493149 -19.69371513 37.51059431 -21.30078125 40.25 C-23.05933791 43.09603193 -25.00565943 45.15162705 -27.375 47.5 C-31.69957081 52.1668631 -32 55.73845124 -32 62 C-35.96 62 -39.92 62 -44 62 C-43.67 60.35 -43.34 58.7 -43 57 C-42.96374367 54.95756021 -42.92880701 52.91502456 -42.91430664 50.87231445 C-42.74652225 41.27942429 -42.74652225 41.27942429 -40.73046875 37.82421875 C-39.0625 36.3125 -39.0625 36.3125 -37.140625 34.88671875 C-35.14337354 33.12636755 -34.11145687 31.75290554 -32.734375 29.51953125 C-26.55733783 19.50681443 -26.55733783 19.50681443 -21.8671875 17.98046875 C-18.6875 17.8125 -18.6875 17.8125 -15.76171875 18.01953125 C-12.31805891 17.99517722 -10.74401754 17.02265211 -8 15 C-4.41002446 10.43094022 -2.22423806 5.32397407 0 0 Z " fill="#4CA770" transform="translate(325,254)"/>
<path d="M0 0 C0.53367188 0.37511719 1.06734375 0.75023437 1.6171875 1.13671875 C12.83395518 8.84096922 22.18930772 13.16056238 36 12 C44.64358976 10.19062308 51.04671842 6.2772914 58 1 C58.66 0.67 59.32 0.34 60 0 C60.72244432 9.43191194 58.80877346 16.83566488 52.875 24.3125 C46.83055407 30.55969464 40.92068969 33.2085468 32.26489258 33.52929688 C31.08189575 33.54573242 31.08189575 33.54573242 29.875 33.5625 C28.7471106 33.58473633 28.7471106 33.58473633 27.59643555 33.60742188 C19.72526414 33.46260129 13.39742714 30.04863013 7.60546875 24.83984375 C1.22240443 17.52494522 -0.1583103 9.34030755 0 0 Z " fill="#F298A2" transform="translate(223,301)"/>
<path d="M0 0 C0 3.25 0 3.25 -1 7 C-2.9349955 8.31024359 -4.79502792 9.09637531 -6.9921875 9.8828125 C-9.80513597 11.44799394 -10.66292332 13.09545805 -12 16 C-12.77058051 21.22050941 -12.80094903 26.21606807 -10.625 31.0625 C-6.74830518 33.92386999 -2.63709456 34.87456077 2 36 C8.75308642 37.75308642 8.75308642 37.75308642 11 40 C10.63318342 42.93453261 10.13562754 43.86437246 8 46 C5.28545044 46.32752234 2.74769241 46.1308425 0 46 C-0.495 45.505 -0.495 45.505 -1 45 C-3.33297433 44.95907063 -5.66705225 44.95758277 -8 45 C-8.33 46.98 -8.66 48.96 -9 51 C-6.31158141 53.25245881 -4.35358125 54.88213958 -1 56 C-0.87625 57.670625 -0.87625 57.670625 -0.75 59.375 C-0.42126213 63.05753944 -0.42126213 63.05753944 2.0625 64.4375 C3.0215625 64.7159375 3.0215625 64.7159375 4 65 C3.67 65.33 3.34 65.66 3 66 C-0.5 65.6875 -0.5 65.6875 -4 65 C-4.33 64.34 -4.66 63.68 -5 63 C-6.49882149 62.24620674 -8.02498033 61.54634447 -9.5625 60.875 C-17.69374114 56.89662451 -22.93637001 51.48600123 -26.30859375 43.078125 C-29.16381628 34.4963262 -29.3551086 25.89782241 -25.4375 17.625 C-20.16674458 8.29981734 -11.55845007 -0.67869903 0 0 Z " fill="#F48520" transform="translate(116,257)"/>
<path d="M0 0 C7.32360897 0.27124478 11.9731443 2.96151268 18 7 C17.51015625 7.60714844 17.0203125 8.21429688 16.515625 8.83984375 C14.66203225 11.48169115 14.6753658 12.83481657 15 16 C15.33 16.99 15.66 17.98 16 19 C19.3 19 22.6 19 26 19 C28.97011987 26.82923599 29.65811753 36.00919758 26.375 43.875 C25.63024846 45.27596619 24.83763052 46.65250743 24 48 C23.56429687 48.70898438 23.12859375 49.41796875 22.6796875 50.1484375 C18.13993032 56.82163248 11.93602478 61.196358 4 63 C1.625 62.625 1.625 62.625 0 62 C0.58861708 58.8361832 1.12177405 56.63163983 3.80859375 54.69921875 C4.51113281 54.30347656 5.21367187 53.90773438 5.9375 53.5 C9.90083443 51.22701692 11.6122664 49.51013421 13 45 C13.52225336 40.16273529 13.68553732 35.22013008 11 31 C6.33335013 28.77076391 1.26550349 27.72065671 -3.73632812 26.5 C-8.78638184 25.21361816 -8.78638184 25.21361816 -11 23 C-10.63318342 20.06546739 -10.13562754 19.13562754 -8 17 C-2.4535976 16.55270948 -0.39037665 16.63404457 4 20 C7.19235272 19.77426109 7.19235272 19.77426109 10 19 C10.95020416 16.760165 10.95020416 16.760165 11 14 C8.81712976 11.318188 7.05220046 9.42088019 3.8125 8.125 C2 7 2 7 0.75 3.375 C0.5025 2.26125 0.255 1.1475 0 0 Z " fill="#F68721" transform="translate(124,257)"/>
<path d="M0 0 C3.100293 -0.30887103 5.2420366 -0.48079875 8.19921875 0.5 C11.27717186 3.80190865 13.16950529 7.49602973 15.19921875 11.5 C22.11494843 21.21940387 32.74821975 26.833329 44.19921875 29.5 C42.77087973 36.68250481 40.63652679 43.44099693 37.82421875 50.1875 C37.54441162 50.89455078 37.26460449 51.60160156 36.97631836 52.33007812 C36.11328125 54.32421875 36.11328125 54.32421875 34.19921875 57.5 C31.47265625 58.45703125 31.47265625 58.45703125 29.19921875 58.5 C29.68132812 57.4378125 30.1634375 56.375625 30.66015625 55.28125 C31.29851972 53.8543199 31.93652121 52.42722783 32.57421875 51 C32.89132812 50.30390625 33.2084375 49.6078125 33.53515625 48.890625 C35.64131249 44.15177346 37.07028446 39.56309922 38.19921875 34.5 C37.48507812 34.39945313 36.7709375 34.29890625 36.03515625 34.1953125 C28.13921814 32.25939379 20.10812151 25.93447655 15.19921875 19.5 C14.77769531 18.54738281 14.35617187 17.59476563 13.921875 16.61328125 C12.32050117 13.14881321 11.1095859 10.99964766 8.19921875 8.5 C1.73323187 6.80218259 -5.24068561 7.86120788 -11.80078125 8.5 C-13.26159269 8.60591986 -14.72252401 8.71020493 -16.18359375 8.8125 C-35.52663566 10.42024518 -54.25483077 16.27112287 -71.33984375 25.36328125 C-73.80078125 26.5 -73.80078125 26.5 -76.80078125 26.5 C-76.80078125 24.52 -76.80078125 22.54 -76.80078125 20.5 C-54.00391173 8.70649754 -31.85729296 2.1595905 -6.14306641 0.6640625 C-4.08848208 0.52015165 -2.04202445 0.2686322 0 0 Z " fill="#BC7275" transform="translate(270.80078125,214.5)"/>
<path d="M0 0 C5.64479893 5.64479893 4.22576504 20.9254948 4.3125 28.625 C4.33006348 29.46530762 4.34762695 30.30561523 4.36572266 31.17138672 C4.36067001 36.20079279 3.79241502 39.65040296 1 44 C-4.9128071 49.65572853 -9.19001809 51.27682209 -17.3125 51.125 C-19.19388672 51.09792969 -19.19388672 51.09792969 -21.11328125 51.0703125 C-22.54220703 51.03550781 -22.54220703 51.03550781 -24 51 C-22.30467952 45.20554642 -19.65630595 39.96390032 -16.9921875 34.5703125 C-16.26396286 33.084814 -16.26396286 33.084814 -15.52102661 31.56930542 C-13.97589073 28.41945115 -12.42552469 25.27220454 -10.875 22.125 C-9.82387221 19.98454514 -8.77308706 17.84392198 -7.72265625 15.703125 C-5.15240417 10.46679356 -2.57785784 5.23259093 0 0 Z " fill="#07B2DE" transform="translate(354,375)"/>
<path d="M0 0 C0.66 0 1.32 0 2 0 C2.24389969 0.50032745 2.48779938 1.00065491 2.73908997 1.5161438 C5.28574076 6.74010553 7.8328133 11.96386146 10.38012695 17.1875 C11.3297787 19.13503874 12.27932417 21.08262931 13.22875977 23.03027344 C14.59623489 25.83542408 15.96409652 28.64038596 17.33203125 31.4453125 C17.96501884 32.74409836 17.96501884 32.74409836 18.61079407 34.06912231 C19.21107674 35.29971878 19.21107674 35.29971878 19.82348633 36.55517578 C20.19704254 37.32363831 20.57059875 38.09210083 20.95547485 38.8838501 C21.87186483 40.74040526 22.82865003 42.5769078 23.79174805 44.40966797 C25 47 25 47 25 50 C22.29057607 50.10861833 19.585561 50.18758577 16.875 50.25 C16.11445313 50.28351563 15.35390625 50.31703125 14.5703125 50.3515625 C9.2185599 50.4438341 6.21806808 49.5945829 2 46 C-1.44798027 41.6073676 -3.18310016 36.94016985 -2.94921875 31.38671875 C-2.91111084 30.47422363 -2.87300293 29.56172852 -2.83374023 28.62158203 C-2.78548096 27.65333496 -2.73722168 26.68508789 -2.6875 25.6875 C-2.64117432 24.70378418 -2.59484863 23.72006836 -2.54711914 22.70654297 C-2.14539925 15.04691665 -1.32869125 7.55935024 0 0 Z " fill="#0784A4" transform="translate(157,375)"/>
<path d="M0 0 C8.69263355 3.45773645 13.2511713 14.82928601 16.75 22.86328125 C21.07967181 33.72805146 22.17903451 43.86842198 22.1875 55.5 C22.19974609 56.38558594 22.21199219 57.27117187 22.22460938 58.18359375 C22.23761422 64.08779128 21.47074721 69.27978162 20 75 C19.67 75 19.34 75 19 75 C18.690625 74.030625 18.38125 73.06125 18.0625 72.0625 C17.30476658 69.15934208 17.30476658 69.15934208 16 68 C13.67182036 67.63239269 11.3381615 67.29758419 9 67 C9.9 59.41428571 9.9 59.41428571 10.51953125 56.84765625 C13.87309458 36.97165897 9.27421957 17.5722055 0 0 Z " fill="#4DA86F" transform="translate(307,177)"/>
<path d="M0 0 C2.5625 0.3125 2.5625 0.3125 4.22583008 1.58032227 C5.90560566 3.75712733 5.80136057 4.64484844 5.51171875 7.33984375 C4.72328309 16.33360571 4.72328309 16.33360571 8.16699219 24.29638672 C11.56244213 27.26925883 15.23205744 29.56188651 19.09765625 31.8671875 C21.07080078 33.08886719 21.07080078 33.08886719 22.5625 34.3125 C23.18359375 37.0078125 23.18359375 37.0078125 22.5625 39.3125 C20.5625 41.3125 20.5625 41.3125 18.01953125 41.8359375 C12.77784283 41.04228072 9.40465981 38.09597434 5.25 34.9375 C4.42693359 34.33421875 3.60386719 33.7309375 2.75585938 33.109375 C-3.27722088 28.63305824 -3.27722088 28.63305824 -4.4375 26.3125 C-4.67946261 22.31747356 -4.62269497 18.3140367 -4.625 14.3125 C-4.63724609 13.19359375 -4.64949219 12.0746875 -4.66210938 10.921875 C-4.66404297 9.85453125 -4.66597656 8.7871875 -4.66796875 7.6875 C-4.67207764 6.70523438 -4.67618652 5.72296875 -4.68041992 4.7109375 C-4.33635747 1.31388273 -3.36840015 0.43184617 0 0 Z " fill="#687841" transform="translate(367.4375,110.6875)"/>
<path d="M0 0 C0.99 0.495 0.99 0.495 2 1 C4.87910588 1.23274209 7.74146495 1.41972757 10.625 1.5625 C11.42679687 1.60568359 12.22859375 1.64886719 13.0546875 1.69335938 C15.0362511 1.79951457 17.01810271 1.90026855 19 2 C18.84015625 3.18078125 18.6803125 4.3615625 18.515625 5.578125 C17.19621789 16.21759937 17.9353142 25.74203612 21 36 C21.34066282 37.33147953 21.67700656 38.66412421 22 40 C13.65112711 36.59860734 7.5966493 27.05442256 3.87890625 19.13671875 C1.25704203 12.76267551 -0.45087845 6.91346964 0 0 Z " fill="#9BB562" transform="translate(316,134)"/>
<path d="M0 0 C13.0223189 -0.39461572 24.21875063 5.32171297 33.875 13.75 C36.61015303 16.32753405 38.51763615 18.53594974 40 22 C38.06213915 21.52229477 36.12472326 21.04278429 34.1875 20.5625 C33.10855469 20.29566406 32.02960938 20.02882813 30.91796875 19.75390625 C28.9259157 19.23922588 26.95188476 18.65062825 25 18 C17.2727594 17.66230568 9.65745862 17.94379881 2 19 C1.93941406 17.79601562 1.87882812 16.59203125 1.81640625 15.3515625 C1.73200268 13.77602923 1.64735459 12.20050904 1.5625 10.625 C1.50352539 9.43390625 1.50352539 9.43390625 1.44335938 8.21875 C1.31106596 3.97398779 1.31106596 3.97398779 0 0 Z " fill="#9BB562" transform="translate(372,78)"/>
<path d="M0 0 C0.90105469 0.02707031 1.80210937 0.05414063 2.73046875 0.08203125 C3.76107422 0.13423828 3.76107422 0.13423828 4.8125 0.1875 C5.24949219 1.69376953 5.24949219 1.69376953 5.6953125 3.23046875 C8.39032894 12.29623242 11.5848733 20.70319074 15.8125 29.1875 C10.1254792 29.779898 5.52263755 29.54368045 0.7421875 26.203125 C-4.24359905 20.99529937 -7.85046592 13.56486231 -8.5625 6.4296875 C-8.1875 3.1875 -8.1875 3.1875 -7.01171875 1.26171875 C-4.55811886 -0.18312059 -2.82787035 -0.11017677 0 0 Z " fill="#F7B4B1" transform="translate(187.1875,243.8125)"/>
<path d="M0 0 C6.48927039 3.65021459 6.48927039 3.65021459 8.859375 5.2734375 C16.09092798 10.2040418 25.16851453 13.37067147 34 12 C43.18400991 9.98837853 50.32424806 6.32688796 58 1 C58.66 0.67 59.32 0.34 60 0 C60.4375 2.625 60.4375 2.625 60 6 C54.65068211 12.90737164 44.34807777 17.41674387 36 19 C22.30524924 20.09090476 11.73071724 16.35118833 1.1953125 7.48046875 C-0.69128754 5.14379746 -0.19228356 2.88425346 0 0 Z " fill="#BC7277" transform="translate(223,295)"/>
<path d="M0 0 C7.26325581 -0.3572093 7.26325581 -0.3572093 10.0625 1 C12.09962195 5.34586017 10.43263084 9.71541919 8.984375 14.015625 C6.78049396 19.67876237 4.88712591 24.27035128 0 28 C-2.75078884 28.91692961 -4.35948913 29.10886083 -7.1875 29.0625 C-9.0746875 29.0315625 -9.0746875 29.0315625 -11 29 C-10.7733667 28.44127197 -10.5467334 27.88254395 -10.31323242 27.30688477 C-9.26848052 24.72656329 -8.22797308 22.14454965 -7.1875 19.5625 C-6.83107422 18.68400391 -6.47464844 17.80550781 -6.10742188 16.90039062 C-3.86533919 11.32603827 -1.82430851 5.72491635 0 0 Z " fill="#F6B4B0" transform="translate(315,244)"/>
<path d="M0 0 C3.50521893 1.4339532 5.00344591 3.09045747 7.125 6.1875 C14.02937547 15.34426235 23.96526235 20.43026657 35 23 C33.57166098 30.18250481 31.43730804 36.94099693 28.625 43.6875 C28.34519287 44.39455078 28.06538574 45.10160156 27.77709961 45.83007812 C26.9140625 47.82421875 26.9140625 47.82421875 25 51 C22.2734375 51.95703125 22.2734375 51.95703125 20 52 C20.48210937 50.9378125 20.96421875 49.875625 21.4609375 48.78125 C22.09930097 47.3543199 22.73730246 45.92722783 23.375 44.5 C23.69210937 43.80390625 24.00921875 43.1078125 24.3359375 42.390625 C26.44209374 37.65177346 27.87106571 33.06309922 29 28 C27.92878906 27.84917969 27.92878906 27.84917969 26.8359375 27.6953125 C14.77303213 24.73774066 6.52659061 14.26029783 0.1875 4.35546875 C-0.204375 3.57816406 -0.59625 2.80085937 -1 2 C-0.67 1.34 -0.34 0.68 0 0 Z " fill="#BD7476" transform="translate(280,221)"/>
<path d="M0 0 C0.77214844 -0.01611328 1.54429687 -0.03222656 2.33984375 -0.04882812 C8.02801972 -0.05375722 8.02801972 -0.05375722 10.25585938 1.67504883 C11.5 3.3125 11.5 3.3125 11.3125 5.875 C10.5 8.3125 10.5 8.3125 8.5 10.3125 C6.65234375 10.57128906 6.65234375 10.57128906 4.4375 10.578125 C3.24253906 10.58199219 3.24253906 10.58199219 2.0234375 10.5859375 C1.19070313 10.57820312 0.35796875 10.57046875 -0.5 10.5625 C-1.33273437 10.57023438 -2.16546875 10.57796875 -3.0234375 10.5859375 C-3.82007813 10.58335937 -4.61671875 10.58078125 -5.4375 10.578125 C-6.16839844 10.57586914 -6.89929688 10.57361328 -7.65234375 10.57128906 C-9.5 10.3125 -9.5 10.3125 -11.5 8.3125 C-11.8125 5.3125 -11.8125 5.3125 -11.5 2.3125 C-7.65681569 -0.24962287 -4.45306045 -0.01858539 0 0 Z " fill="#687841" transform="translate(327.5,125.6875)"/>
<path d="M0 0 C3 -0.3125 3 -0.3125 6 0 C8.7633734 2.7633734 8.28850252 4.65547443 8.32226562 8.42773438 C8.31904297 9.25595703 8.31582031 10.08417969 8.3125 10.9375 C8.32861328 11.76185547 8.34472656 12.58621094 8.36132812 13.43554688 C8.36197266 14.22896484 8.36261719 15.02238281 8.36328125 15.83984375 C8.36775269 16.92833618 8.36775269 16.92833618 8.37231445 18.03881836 C7.89331408 20.56197245 7.03499371 21.47352716 5 23 C1.65807308 22.75546876 0.39456443 22.39456443 -2 20 C-2.19896281 17.14722446 -2.27824931 14.41332628 -2.25 11.5625 C-2.25773437 10.78583984 -2.26546875 10.00917969 -2.2734375 9.20898438 C-2.25996806 5.29947832 -2.21368645 3.32052968 0 0 Z " fill="#687840" transform="translate(366,78)"/>
<path d="M0 0 C3 0.25 3 0.25 5 2.25 C5.25878906 4.09765625 5.25878906 4.09765625 5.265625 6.3125 C5.26820313 7.10914063 5.27078125 7.90578125 5.2734375 8.7265625 C5.26570313 9.55929688 5.25796875 10.39203125 5.25 11.25 C5.25773437 12.08273438 5.26546875 12.91546875 5.2734375 13.7734375 C5.27085937 14.57007813 5.26828125 15.36671875 5.265625 16.1875 C5.26336914 16.91839844 5.26111328 17.64929688 5.25878906 18.40234375 C5 20.25 5 20.25 3 22.25 C0 22.5 0 22.5 -3 22.25 C-5.36568222 19.88431778 -5.25571704 19.39767774 -5.265625 16.1875 C-5.26820313 15.39085937 -5.27078125 14.59421875 -5.2734375 13.7734375 C-5.26570313 12.94070312 -5.25796875 12.10796875 -5.25 11.25 C-5.25773437 10.41726562 -5.26546875 9.58453125 -5.2734375 8.7265625 C-5.27085937 7.92992187 -5.26828125 7.13328125 -5.265625 6.3125 C-5.26336914 5.58160156 -5.26111328 4.85070312 -5.25878906 4.09765625 C-4.77490843 0.6429311 -3.26461814 0.27205151 0 0 Z " fill="#687841" transform="translate(369,161.75)"/>
<path d="M0 0 C1.19496094 -0.00386719 1.19496094 -0.00386719 2.4140625 -0.0078125 C3.24679687 -0.00007813 4.07953125 0.00765625 4.9375 0.015625 C5.77023437 0.00789063 6.60296875 0.00015625 7.4609375 -0.0078125 C8.25757813 -0.00523438 9.05421875 -0.00265625 9.875 0 C10.60589844 0.00225586 11.33679688 0.00451172 12.08984375 0.00683594 C13.9375 0.265625 13.9375 0.265625 15.9375 2.265625 C16.1875 5.265625 16.1875 5.265625 15.9375 8.265625 C13.57181778 10.63130722 13.08517774 10.52134204 9.875 10.53125 C8.68003906 10.53511719 8.68003906 10.53511719 7.4609375 10.5390625 C6.62820313 10.53132812 5.79546875 10.52359375 4.9375 10.515625 C4.10476563 10.52335938 3.27203125 10.53109375 2.4140625 10.5390625 C1.61742187 10.53648437 0.82078125 10.53390625 0 10.53125 C-0.73089844 10.52899414 -1.46179688 10.52673828 -2.21484375 10.52441406 C-4.0625 10.265625 -4.0625 10.265625 -6.0625 8.265625 C-6.3125 5.265625 -6.3125 5.265625 -6.0625 2.265625 C-3.69681778 -0.10005722 -3.21017774 0.00990796 0 0 Z " fill="#697942" transform="translate(406.0625,125.734375)"/>
<path d="M0 0 C0.66 0 1.32 0 2 0 C2.34933594 1.12019531 2.69867188 2.24039062 3.05859375 3.39453125 C3.51821405 4.86719222 3.9778503 6.33984821 4.4375 7.8125 C4.66759766 8.55048828 4.89769531 9.28847656 5.13476562 10.04882812 C6.0687184 13.04018411 7.00899104 16.02697312 8 19 C1.73 19 -4.54 19 -11 19 C-9.42265689 14.26797067 -8.13734424 11.29541786 -5.5 7.25 C-4.8915625 6.30640625 -4.283125 5.3628125 -3.65625 4.390625 C-2 2 -2 2 0 0 Z " fill="#0685A5" transform="translate(176,330)"/>
<path d="M0 0 C0.52980469 0.16757812 1.05960938 0.33515625 1.60546875 0.5078125 C4.08066367 1.10988715 4.08066367 1.10988715 6.98828125 0.9296875 C10.59518941 0.87034941 13.52001608 1.01477977 17 2 C20.18795861 5.28249445 22.1091696 8.85908143 24 13 C24.33 13.66 24.66 14.32 25 15 C18.22656578 15.56030246 13.26895239 15.50327832 7.65234375 11.42578125 C3.81510738 8.11469077 1.63679225 4.77397741 0 0 Z " fill="#51A872" transform="translate(190,271)"/>
<path d="M0 0 C0.66 0.33 1.32 0.66 2 1 C1.67 1.66 1.34 2.32 1 3 C0.5277437 8.24127074 0.19511218 13.20729532 2.375 18.0625 C6.25169482 20.92386999 10.36290544 21.87456077 15 23 C21.75308642 24.75308642 21.75308642 24.75308642 24 27 C23.8125 29.0625 23.8125 29.0625 23 31 C22.01 31.33 21.02 31.66 20 32 C19.72929688 31.06994141 19.72929688 31.06994141 19.453125 30.12109375 C17.28226095 26.95233252 14.31276122 26.79037595 10.75 26.0625 C5.00292037 24.72536881 0.99541877 23.46546803 -3 19 C-5.08301198 14.83397604 -4.46520412 9.53725057 -4 5 C-2 1.75 -2 1.75 0 0 Z " fill="#B9682D" transform="translate(103,270)"/>
<path d="M0 0 C1.875 1.0625 1.875 1.0625 3 3 C3.63316583 8.90954774 3.63316583 8.90954774 1.875 11.9375 C-0.93512264 13.52990283 -2.82764724 13.45319325 -6 13 C-8.7912125 11.01677007 -9.82597224 9.87013879 -10.5 6.5 C-9.33037707 0.65188536 -5.56964553 -0.82952167 0 0 Z " fill="#FDE88B" transform="translate(148,264)"/>
<path d="M0 0 C1.65 0.33 3.3 0.66 5 1 C3.57166098 8.18250481 1.43730804 14.94099693 -1.375 21.6875 C-1.65480713 22.39455078 -1.93461426 23.10160156 -2.22290039 23.83007812 C-3.0859375 25.82421875 -3.0859375 25.82421875 -5 29 C-7.7265625 29.95703125 -7.7265625 29.95703125 -10 30 C-9.52949219 29.00742187 -9.05898438 28.01484375 -8.57421875 26.9921875 C-4.44694269 18.06356887 -1.60084969 9.75756001 0 0 Z " fill="#BD8884" transform="translate(310,243)"/>
<path d="M0 0 C0.2475 0.928125 0.495 1.85625 0.75 2.8125 C2.08377597 6.21362873 2.89949246 7.21485929 6 9 C6.99 9.33 7.98 9.66 9 10 C9.12375 11.670625 9.12375 11.670625 9.25 13.375 C9.57873787 17.05753944 9.57873787 17.05753944 12.0625 18.4375 C12.701875 18.623125 13.34125 18.80875 14 19 C13.67 19.33 13.34 19.66 13 20 C10.66055264 19.71269945 8.3260857 19.38063221 6 19 C5.814375 18.0925 5.62875 17.185 5.4375 16.25 C3.89753349 12.76833659 3.61826899 12.53824074 0.4375 11 C-3 9 -3 9 -4.125 5.9375 C-4 3 -4 3 -2.625 1.125 C-1 0 -1 0 0 0 Z " fill="#BB6A2E" transform="translate(106,303)"/>
<path d="M0 0 C0.33 0 0.66 0 1 0 C1.07476562 0.62003906 1.14953125 1.24007812 1.2265625 1.87890625 C2.50984183 10.52217 5.60902893 18.02016047 9 26 C9.67123244 27.66483309 10.33990444 29.33071989 11 31 C9.1875 30.83203125 9.1875 30.83203125 7 30 C1.77785092 22.31038549 -3 11.37070748 -3 2 C-2.01 2 -1.02 2 0 2 C0 1.34 0 0.68 0 0 Z " fill="#D29692" transform="translate(195,242)"/>
<path d="M0 0 C1.66707991 0.66563263 3.33365098 1.33253976 5 2 C5.87140625 2.33257812 6.7428125 2.66515625 7.640625 3.0078125 C14.57929593 5.97856083 14.57929593 5.97856083 15.8671875 9.10546875 C16.125 11.3125 16.125 11.3125 16 15 C10.7986309 14.09440449 7.55801027 10.71112137 4 7 C2.40972221 4.71618439 1.22915937 2.50953372 0 0 Z " fill="#4EA86E" transform="translate(179,228)"/>
<path d="M0 0 C6.26079448 -0.43177893 9.09075703 0.07260562 14 4 C13.67 4.66 13.34 5.32 13 6 C7.72250715 5.46148032 3.74354436 4.22656164 -1 2 C-0.67 1.34 -0.34 0.68 0 0 Z " fill="#BB692F" transform="translate(116,274)"/>
<path d="M0 0 C3.48872415 1.16290805 4.09976864 2.13967609 6.1875 5.0625 C6.71730469 5.79597656 7.24710937 6.52945312 7.79296875 7.28515625 C8.19128906 7.85105469 8.58960938 8.41695313 9 9 C7.68 9.33 6.36 9.66 5 10 C3.35 6.7 1.7 3.4 0 0 Z " fill="#4AA876" transform="translate(343,339)"/>
<path d="M0 0 C0.66 0.33 1.32 0.66 2 1 C1.67 1.66 1.34 2.32 1 3 C0.77377919 4.70363822 0.59111527 6.41328701 0.4375 8.125 C0.31181641 9.49011719 0.31181641 9.49011719 0.18359375 10.8828125 C0.12300781 11.58148438 0.06242187 12.28015625 0 13 C-0.33 13 -0.66 13 -1 13 C-2 5.375 -2 5.375 -2 2 C-1.34 1.34 -0.68 0.68 0 0 Z " fill="#C9885A" transform="translate(103,270)"/>
<path d="M0 0 C0.66 0 1.32 0 2 0 C2 1.65 2 3.3 2 5 C0.68 5.33 -0.64 5.66 -2 6 C-1.125 1.125 -1.125 1.125 0 0 Z " fill="#BE733D" transform="translate(113,259)"/>
</svg>
